<svg version="1.1" id="Layer_1" xmlns="http://www.w3.org/2000/svg" xmlns:xlink="http://www.w3.org/1999/xlink" x="0px" y="0px"
	 width="100%" viewBox="0 0 500 500" enable-background="new 0 0 500 500" xml:space="preserve">
<path fill="#000000" opacity="1.000000" stroke="none" 
	d="
M235.000000,501.000000 
	C156.666687,501.000000 78.833374,501.000000 1.000042,501.000000 
	C1.000028,334.333405 1.000028,167.666779 1.000014,1.000131 
	C167.666565,1.000087 334.333130,1.000087 500.999756,1.000044 
	C500.999847,167.666519 500.999847,334.333038 500.999939,500.999786 
	C412.500000,501.000000 324.000000,501.000000 235.000000,501.000000 
M275.533417,184.576630 
	C271.724030,184.576630 267.914642,184.576630 263.361023,184.576630 
	C264.344025,185.849701 264.560089,186.443024 264.922668,186.552917 
	C272.599640,188.879379 272.646912,188.868683 272.662384,197.056656 
	C272.693573,213.550018 272.700043,230.043549 272.659821,246.536865 
	C272.639832,254.725082 272.563507,254.737061 264.735474,257.053741 
	C264.429749,257.144226 264.281708,257.767303 263.781525,258.613892 
	C282.308044,258.613892 300.431519,258.613892 317.959290,258.613892 
	C317.959290,251.596985 317.959290,244.734436 317.959290,237.871887 
	C317.371979,237.815781 316.784668,237.759674 316.197357,237.703568 
	C315.766785,240.003052 315.374023,242.310379 314.898102,244.600418 
	C313.748535,250.131958 311.485657,255.112946 305.216095,255.794281 
	C299.292755,256.437988 293.244446,256.348907 287.288086,255.981964 
	C285.771973,255.888535 283.199249,253.561768 283.148163,252.185562 
	C282.786774,242.452728 282.955994,232.700180 282.955994,222.984482 
	C294.470123,222.371246 298.368317,222.782135 299.178467,234.358597 
	C299.236877,235.193741 300.351532,235.954956 301.202209,237.040298 
	C301.202209,226.279678 301.202209,216.387756 301.202209,206.495834 
	C298.626648,210.243637 298.152252,215.260361 295.400024,217.618057 
	C292.513763,220.090546 287.442688,220.012543 282.829590,221.174347 
	C282.829590,210.618713 282.833344,201.495483 282.827667,192.372253 
	C282.825470,188.848877 284.773224,187.174759 288.094604,187.064453 
	C292.088898,186.931793 296.090240,186.930588 300.087250,186.978729 
	C308.840851,187.084152 311.626495,189.544525 313.076508,198.122086 
	C313.391754,199.986771 314.041199,201.794983 314.536713,203.629196 
	C315.043274,203.542206 315.549835,203.455200 316.056396,203.368210 
	C316.056396,197.199448 316.056396,191.030701 316.056396,184.593307 
	C303.082489,184.593307 289.802063,184.593307 275.533417,184.576630 
M183.473450,193.823181 
	C183.221222,188.000641 187.780350,186.928223 191.833038,185.054123 
	C184.993042,185.054123 178.153061,185.054123 171.313065,185.054123 
	C180.848022,189.888458 180.848434,189.888458 180.848969,201.276154 
	C180.849487,212.602783 180.861969,223.929459 180.831787,235.256012 
	C180.828232,236.595169 180.588760,237.933716 180.334366,240.551163 
	C178.675629,238.093933 177.762817,236.785034 176.893799,235.447708 
	C166.654785,219.691010 156.426758,203.927216 146.179672,188.175797 
	C145.367844,186.927872 144.489304,184.764359 143.551010,184.713913 
	C137.618820,184.394867 131.661041,184.552048 124.914352,184.552048 
	C125.983200,185.926926 126.206299,186.533386 126.569344,186.633774 
	C134.016205,188.693085 134.053925,188.681549 134.064728,196.209122 
	C134.088135,212.532776 134.081879,228.856461 134.069336,245.180145 
	C134.062500,254.059280 134.043869,254.055283 125.928688,257.357117 
	C125.784645,257.415710 125.836601,257.956024 125.783363,258.381287 
	C132.606125,258.381287 139.385376,258.381287 147.397232,258.381287 
	C136.798157,253.468109 136.797348,253.468109 136.796753,242.101334 
	C136.795975,226.943634 136.788071,211.785919 136.813538,196.628265 
	C136.815475,195.470688 137.057678,194.313522 137.268112,192.447769 
	C152.481415,215.452728 166.569183,238.133728 181.471710,260.262878 
	C182.105576,260.010742 182.739441,259.758636 183.373306,259.506500 
	C183.373306,237.921158 183.373306,216.335815 183.473450,193.823181 
M234.863037,233.601730 
	C235.372330,234.625153 235.881638,235.648575 236.811310,237.516724 
	C236.811310,226.286575 236.811310,216.368286 236.811310,206.449982 
	C234.297852,210.403397 233.765945,215.515152 230.938278,217.868881 
	C228.021896,220.296463 222.871140,220.039734 218.286880,221.047791 
	C218.286880,211.278763 218.158081,202.954559 218.328659,194.636505 
	C218.459259,188.266953 219.803665,187.088715 226.065964,186.972626 
	C229.062500,186.917053 232.061035,186.937134 235.058350,186.961472 
	C244.876831,187.041199 247.548798,189.447189 249.051895,199.301346 
	C249.278168,200.784744 249.988617,202.194305 250.475098,203.638016 
	C250.938110,203.530502 251.401138,203.422989 251.864166,203.315475 
	C251.864166,197.123642 251.864166,190.931824 251.864166,184.766266 
	C234.609024,184.766266 217.323898,184.766266 199.239059,184.766266 
	C200.213531,185.850800 200.613663,186.669647 200.989105,186.658493 
	C207.626480,186.461166 208.354233,190.677399 208.320145,195.899811 
	C208.212601,212.385559 208.289902,228.872467 208.280853,245.358917 
	C208.276154,253.937805 208.260208,253.933228 200.239655,257.206879 
	C200.066406,257.277618 200.079407,257.804688 199.900833,258.564148 
	C218.103256,258.564148 236.199677,258.564148 253.926346,258.564148 
	C253.926346,251.658447 253.926346,244.840210 253.926346,238.021973 
	C253.420822,237.928085 252.915283,237.834198 252.409760,237.740326 
	C251.938004,239.400101 251.303360,241.032715 251.021210,242.724106 
	C249.345535,252.769760 245.990616,255.899338 235.924377,256.367126 
	C232.270309,256.536957 228.599792,256.317841 224.939514,256.399017 
	C220.607941,256.495026 218.406586,254.440338 218.391113,250.138611 
	C218.358902,241.183548 218.381363,232.228302 218.381363,223.308090 
	C232.094986,221.627838 233.392990,224.224884 234.863037,233.601730 
M334.659546,255.529205 
	C336.482452,256.106293 338.272888,256.836456 340.134430,257.231354 
	C345.414612,258.351501 350.734406,260.231750 356.019226,260.169403 
	C364.798645,260.065918 371.830017,255.984879 374.811920,247.154785 
	C377.797760,238.313034 375.023651,230.017334 366.878204,223.797546 
	C361.339233,219.568085 355.272217,216.035904 349.523560,212.072662 
	C347.072479,210.382828 344.571045,208.632996 342.550140,206.480698 
	C338.679169,202.358047 338.011353,196.375946 340.589478,191.649734 
	C343.321960,186.640610 347.919586,185.095169 353.239471,185.437561 
	C360.591583,185.910736 365.613434,190.602356 367.949829,198.913925 
	C368.583252,201.167221 369.074890,203.460373 369.631592,205.735229 
	C370.149139,205.675079 370.666656,205.614929 371.184204,205.554794 
	C371.184204,198.394669 371.184204,191.234543 371.184204,182.677277 
	C369.668549,185.346222 368.777679,186.914978 367.676300,188.854401 
	C365.572174,187.784927 363.653351,186.881470 361.801819,185.856430 
	C352.395660,180.648941 339.348969,183.152100 333.933502,191.232758 
	C328.404877,199.482285 330.589142,210.872467 339.434235,217.899628 
	C343.716156,221.301483 348.611572,223.920044 353.030212,227.164307 
	C356.626709,229.804932 360.479492,232.400101 363.246735,235.805222 
	C369.573761,243.590698 365.976746,255.246323 356.905731,257.751953 
	C348.951477,259.949127 340.701447,256.494324 337.207397,248.925461 
	C335.564758,245.367157 335.014984,241.309967 333.898224,237.499893 
	C333.557312,236.336761 332.977478,235.243683 332.507050,234.118515 
	C332.136993,234.240250 331.766968,234.362000 331.396912,234.483734 
	C331.396912,242.937225 331.396912,251.390717 331.396912,259.844208 
	C331.739349,259.898926 332.081787,259.953613 332.424225,260.008301 
	C332.984558,258.722137 333.544922,257.436005 334.659546,255.529205 
M150.504547,278.026398 
	C145.388641,278.026398 140.272736,278.026398 135.156845,278.026398 
	C135.175385,278.483459 135.193924,278.940521 135.212463,279.397583 
	C147.680450,279.397583 160.148453,279.397583 172.616440,279.397583 
	C172.620255,278.940521 172.624069,278.483490 172.627899,278.026428 
	C165.586029,278.026428 158.544174,278.026428 150.504547,278.026398 
z"/>
<path fill="#F1F1F1" opacity="1.000000" stroke="none" 
	d="
M276.027527,184.584961 
	C289.802063,184.593307 303.082489,184.593307 316.056396,184.593307 
	C316.056396,191.030701 316.056396,197.199448 316.056396,203.368210 
	C315.549835,203.455200 315.043274,203.542206 314.536713,203.629196 
	C314.041199,201.794983 313.391754,199.986771 313.076508,198.122086 
	C311.626495,189.544525 308.840851,187.084152 300.087250,186.978729 
	C296.090240,186.930588 292.088898,186.931793 288.094604,187.064453 
	C284.773224,187.174759 282.825470,188.848877 282.827667,192.372253 
	C282.833344,201.495483 282.829590,210.618713 282.829590,221.174347 
	C287.442688,220.012543 292.513763,220.090546 295.400024,217.618057 
	C298.152252,215.260361 298.626648,210.243637 301.202209,206.495834 
	C301.202209,216.387756 301.202209,226.279678 301.202209,237.040298 
	C300.351532,235.954956 299.236877,235.193741 299.178467,234.358597 
	C298.368317,222.782135 294.470123,222.371246 282.955994,222.984482 
	C282.955994,232.700180 282.786774,242.452728 283.148163,252.185562 
	C283.199249,253.561768 285.771973,255.888535 287.288086,255.981964 
	C293.244446,256.348907 299.292755,256.437988 305.216095,255.794281 
	C311.485657,255.112946 313.748535,250.131958 314.898102,244.600418 
	C315.374023,242.310379 315.766785,240.003052 316.197357,237.703568 
	C316.784668,237.759674 317.371979,237.815781 317.959290,237.871887 
	C317.959290,244.734436 317.959290,251.596985 317.959290,258.613892 
	C300.431519,258.613892 282.308044,258.613892 263.781525,258.613892 
	C264.281708,257.767303 264.429749,257.144226 264.735474,257.053741 
	C272.563507,254.737061 272.639832,254.725082 272.659821,246.536865 
	C272.700043,230.043549 272.693573,213.550018 272.662384,197.056656 
	C272.646912,188.868683 272.599640,188.879379 264.922668,186.552917 
	C264.560089,186.443024 264.344025,185.849701 263.361023,184.576630 
	C267.914642,184.576630 271.724030,184.576630 276.027527,184.584961 
z"/>
<path fill="#F2F2F2" opacity="1.000000" stroke="none" 
	d="
M183.423370,194.286835 
	C183.373306,216.335815 183.373306,237.921158 183.373306,259.506500 
	C182.739441,259.758636 182.105576,260.010742 181.471710,260.262878 
	C166.569183,238.133728 152.481415,215.452728 137.268112,192.447769 
	C137.057678,194.313522 136.815475,195.470688 136.813538,196.628265 
	C136.788071,211.785919 136.795975,226.943634 136.796753,242.101334 
	C136.797348,253.468109 136.798157,253.468109 147.397232,258.381287 
	C139.385376,258.381287 132.606125,258.381287 125.783363,258.381287 
	C125.836601,257.956024 125.784645,257.415710 125.928688,257.357117 
	C134.043869,254.055283 134.062500,254.059280 134.069336,245.180145 
	C134.081879,228.856461 134.088135,212.532776 134.064728,196.209122 
	C134.053925,188.681549 134.016205,188.693085 126.569344,186.633774 
	C126.206299,186.533386 125.983200,185.926926 124.914352,184.552048 
	C131.661041,184.552048 137.618820,184.394867 143.551010,184.713913 
	C144.489304,184.764359 145.367844,186.927872 146.179672,188.175797 
	C156.426758,203.927216 166.654785,219.691010 176.893799,235.447708 
	C177.762817,236.785034 178.675629,238.093933 180.334366,240.551163 
	C180.588760,237.933716 180.828232,236.595169 180.831787,235.256012 
	C180.861969,223.929459 180.849487,212.602783 180.848969,201.276154 
	C180.848434,189.888458 180.848022,189.888458 171.313065,185.054123 
	C178.153061,185.054123 184.993042,185.054123 191.833038,185.054123 
	C187.780350,186.928223 183.221222,188.000641 183.423370,194.286835 
z"/>
<path fill="#F1F1F1" opacity="1.000000" stroke="none" 
	d="
M234.803040,233.211670 
	C233.392990,224.224884 232.094986,221.627838 218.381363,223.308090 
	C218.381363,232.228302 218.358902,241.183548 218.391113,250.138611 
	C218.406586,254.440338 220.607941,256.495026 224.939514,256.399017 
	C228.599792,256.317841 232.270309,256.536957 235.924377,256.367126 
	C245.990616,255.899338 249.345535,252.769760 251.021210,242.724106 
	C251.303360,241.032715 251.938004,239.400101 252.409760,237.740326 
	C252.915283,237.834198 253.420822,237.928085 253.926346,238.021973 
	C253.926346,244.840210 253.926346,251.658447 253.926346,258.564148 
	C236.199677,258.564148 218.103256,258.564148 199.900833,258.564148 
	C200.079407,257.804688 200.066406,257.277618 200.239655,257.206879 
	C208.260208,253.933228 208.276154,253.937805 208.280853,245.358917 
	C208.289902,228.872467 208.212601,212.385559 208.320145,195.899811 
	C208.354233,190.677399 207.626480,186.461166 200.989105,186.658493 
	C200.613663,186.669647 200.213531,185.850800 199.239059,184.766266 
	C217.323898,184.766266 234.609024,184.766266 251.864166,184.766266 
	C251.864166,190.931824 251.864166,197.123642 251.864166,203.315475 
	C251.401138,203.422989 250.938110,203.530502 250.475098,203.638016 
	C249.988617,202.194305 249.278168,200.784744 249.051895,199.301346 
	C247.548798,189.447189 244.876831,187.041199 235.058350,186.961472 
	C232.061035,186.937134 229.062500,186.917053 226.065964,186.972626 
	C219.803665,187.088715 218.459259,188.266953 218.328659,194.636505 
	C218.158081,202.954559 218.286880,211.278763 218.286880,221.047791 
	C222.871140,220.039734 228.021896,220.296463 230.938278,217.868881 
	C233.765945,215.515152 234.297852,210.403397 236.811310,206.449982 
	C236.811310,216.368286 236.811310,226.286575 236.811310,237.516724 
	C235.881638,235.648575 235.372330,234.625153 234.803040,233.211670 
z"/>
<path fill="#F3F3F3" opacity="1.000000" stroke="none" 
	d="
M334.382385,255.839523 
	C333.544922,257.436005 332.984558,258.722137 332.424225,260.008301 
	C332.081787,259.953613 331.739349,259.898926 331.396912,259.844208 
	C331.396912,251.390717 331.396912,242.937225 331.396912,234.483734 
	C331.766968,234.362000 332.136993,234.240250 332.507050,234.118515 
	C332.977478,235.243683 333.557312,236.336761 333.898224,237.499893 
	C335.014984,241.309967 335.564758,245.367157 337.207397,248.925461 
	C340.701447,256.494324 348.951477,259.949127 356.905731,257.751953 
	C365.976746,255.246323 369.573761,243.590698 363.246735,235.805222 
	C360.479492,232.400101 356.626709,229.804932 353.030212,227.164307 
	C348.611572,223.920044 343.716156,221.301483 339.434235,217.899628 
	C330.589142,210.872467 328.404877,199.482285 333.933502,191.232758 
	C339.348969,183.152100 352.395660,180.648941 361.801819,185.856430 
	C363.653351,186.881470 365.572174,187.784927 367.676300,188.854401 
	C368.777679,186.914978 369.668549,185.346222 371.184204,182.677277 
	C371.184204,191.234543 371.184204,198.394669 371.184204,205.554794 
	C370.666656,205.614929 370.149139,205.675079 369.631592,205.735229 
	C369.074890,203.460373 368.583252,201.167221 367.949829,198.913925 
	C365.613434,190.602356 360.591583,185.910736 353.239471,185.437561 
	C347.919586,185.095169 343.321960,186.640610 340.589478,191.649734 
	C338.011353,196.375946 338.679169,202.358047 342.550140,206.480698 
	C344.571045,208.632996 347.072479,210.382828 349.523560,212.072662 
	C355.272217,216.035904 361.339233,219.568085 366.878204,223.797546 
	C375.023651,230.017334 377.797760,238.313034 374.811920,247.154785 
	C371.830017,255.984879 364.798645,260.065918 356.019226,260.169403 
	C350.734406,260.231750 345.414612,258.351501 340.134430,257.231354 
	C338.272888,256.836456 336.482452,256.106293 334.382385,255.839523 
z"/>
<path fill="#808080" opacity="1.000000" stroke="none" 
	d="
M151.003433,278.026428 
	C158.544174,278.026428 165.586029,278.026428 172.627899,278.026428 
	C172.624069,278.483490 172.620255,278.940521 172.616440,279.397583 
	C160.148453,279.397583 147.680450,279.397583 135.212463,279.397583 
	C135.193924,278.940521 135.175385,278.483459 135.156845,278.026398 
	C140.272736,278.026398 145.388641,278.026398 151.003433,278.026428 
z"/>
</svg>